<?xml version="1.0" encoding="UTF-8" standalone="no"?>
<!-- Created with Inkscape (http://www.inkscape.org/) -->

<svg
   version="1.1"
   id="svg1"
   width="377.37756"
   height="442.50568"
   viewBox="0 0 377.37756 442.50568"
   sodipodi:docname="chungus_bw.svg"
   xml:space="preserve"
   inkscape:version="1.4.2 (ebf0e940d0, 2025-05-08)"
   inkscape:export-filename="chungus_bw.png"
   inkscape:export-xdpi="200"
   inkscape:export-ydpi="200"
   xmlns:inkscape="http://www.inkscape.org/namespaces/inkscape"
   xmlns:sodipodi="http://sodipodi.sourceforge.net/DTD/sodipodi-0.dtd"
   xmlns="http://www.w3.org/2000/svg"
   xmlns:svg="http://www.w3.org/2000/svg"><defs
     id="defs1" /><sodipodi:namedview
     id="namedview1"
     pagecolor="#ffffff"
     bordercolor="#000000"
     borderopacity="0.25"
     inkscape:showpageshadow="2"
     inkscape:pageopacity="0.0"
     inkscape:pagecheckerboard="0"
     inkscape:deskcolor="#d1d1d1"
     inkscape:zoom="0.93435263"
     inkscape:cx="180.33876"
     inkscape:cy="293.7863"
     inkscape:window-width="1440"
     inkscape:window-height="888"
     inkscape:window-x="0"
     inkscape:window-y="0"
     inkscape:window-maximized="1"
     inkscape:current-layer="g1" /><g
     inkscape:groupmode="layer"
     inkscape:label="Image"
     id="g1"
     transform="translate(-7.8575382,-103.80175)"><path
       style="fill:#000000;stroke:#000000;stroke-width:3;stroke-dasharray:none;stroke-opacity:1"
       d="m 108.20084,540.80494 c 5.91663,-13.6947 7.83305,-18.98182 10.42099,-28.75 3.61968,-13.66247 6.44577,-33.1815 8.44446,-58.32353 l 1.53615,-19.32354 -3.0531,-4.43751 c -4.7185,-6.85812 -5.95226,-10.7359 -6.58701,-20.70339 -0.76066,-11.94474 0.64912,-19.23368 5.70861,-29.51495 4.89083,-9.93856 11.9992,-17.47644 20.28161,-21.50708 5.24469,-2.55233 6.75444,-2.8076 16.46458,-2.78379 7.66289,0.0188 12.75107,0.60524 17.96678,2.07081 9.17885,2.57919 30.25942,10.3989 45.22363,16.77542 6.325,2.6952 13.75,5.79944 16.5,6.89832 5.00884,2.00149 7.429,5.37249 3.82332,5.32546 -1.00282,-0.0131 -9.02332,-2.97171 -17.82332,-6.57473 -43.41808,-17.77686 -49.71674,-19.68173 -65.5,-19.80886 -10.73017,-0.0864 -11.80217,0.085 -16.01402,2.56123 -14.35936,8.44209 -23.66092,26.69426 -22.83463,44.80773 0.29184,6.39759 0.95682,8.87335 4.08133,15.19506 2.05297,4.15371 6.21547,10.33472 9.25,13.73557 7.25944,8.13581 7.59404,12.409 0.50455,6.44358 -2.33251,-1.96268 -3.36857,-2.33681 -3.93466,-1.42086 -0.42264,0.68384 -1.02153,6.72023 -1.33087,13.41421 -0.70789,15.31829 -4.92594,43.41273 -8.79339,58.56865 -3.29735,12.92178 -3.89727,14.70151 -8.20878,24.3522 -2.49333,5.58096 -3.42527,6.75 -5.38099,6.75 -2.35469,0 -2.35806,-0.0169 -0.74524,-3.75 z m 233.10934,-6 c -1.98254,-5.3625 -5.70427,-15.825 -8.27052,-23.25 -2.56625,-7.425 -4.79926,-13.64846 -4.96225,-13.8299 -0.16299,-0.18145 -1.41872,0.4055 -2.79051,1.30433 -1.37179,0.89884 -2.7109,1.27229 -2.9758,0.82991 -0.26489,-0.44239 1.01069,-5.40239 2.83464,-11.02223 6.41509,-19.7658 7.77507,-26.82324 7.18432,-37.28211 -0.54768,-9.69608 -4.11237,-23.02626 -9.29267,-34.75 -2.49601,-5.64881 -3.74572,-6.39682 -5.42985,-3.25 -0.5887,1.1 -1.50453,2 -2.03518,2 -1.78069,0 -0.98631,-4.45121 1.87385,-10.5 3.86851,-8.18126 6.46324,-16.27084 5.78543,-18.03719 -0.71909,-1.87394 -4.6388,-1.85783 -16.51281,0.0679 l -9.38872,1.52264 -6.36128,6.55196 c -3.49871,3.60358 -6.37601,6.85408 -6.39401,7.22334 -0.25893,5.31316 -2.12008,14.69112 -3.48748,17.5727 -2.04364,4.30665 -4.99231,6.05598 -12.51165,7.42266 -4.43393,0.80589 -5.92434,1.61717 -7.96164,4.33376 -5.5146,7.35333 -12.73486,14.23765 -16.87165,16.08665 -3.88009,1.73426 -4.88014,1.81118 -9,0.69218 -3.73653,-1.01489 -6.3141,-2.94491 -13.29878,-9.95783 -7.53666,-7.56713 -9.30686,-10.05077 -13.60546,-19.08884 -2.71784,-5.71445 -5.44693,-11.6274 -6.06464,-13.1399 -1.43677,-3.51803 -2.52024,-3.46559 -5.16598,0.25 -2.60866,3.66353 -4,3.82884 -4,0.47525 0,-3.72977 -3.76224,-4.83354 -11.9401,-3.503 -3.60794,0.58701 -7.2349,1.1709 -8.0599,1.29752 -0.825,0.12663 -1.71235,-0.21977 -1.97189,-0.76977 -0.84895,-1.79907 4.63891,-3.51503 13.63809,-4.2644 7.92193,-0.65967 8.8338,-0.94205 8.8338,-2.7356 0,-1.62708 0.55938,-1.93998 3,-1.67813 12.41233,1.33173 33.17736,-1.2898 32.25013,-4.07149 -0.73721,-2.21162 -14.03866,-5.31914 -31.00013,-7.24233 -4.01131,-0.45482 -5.75,-1.08378 -5.75,-2.08001 0,-3.44853 17.96733,-0.94554 40.51314,5.64382 11.89219,3.47567 14.48686,4.56482 14.48686,6.08107 0,2.25229 -0.036,2.25315 -6.67532,0.16028 -7.13623,-2.24949 -8.19174,-0.98048 -3.69031,4.43679 3.33481,4.0133 3.81928,4.24756 8.69857,4.20623 6.04934,-0.0512 14.5667,-2.75646 15.99844,-5.0813 1.20603,-1.95835 -1.77632,-8.21907 -6.92096,-14.52885 -6.7775,-8.31247 -6.276,-11.64385 1.93828,-12.87566 6.38218,-0.95707 16.96666,-1.03527 18.4013,-0.13596 2.4706,1.54872 1.20995,6.31079 -3.75,14.16554 -5.48523,8.68659 -6.1403,11.81936 -2.84072,13.58524 2.82767,1.51333 10.57401,0.56867 16.3735,-1.99672 3.35935,-1.486 4.91403,-2.91364 5.99797,-5.50787 1.69678,-4.06096 3.25028,-4.63128 19.46925,-7.14749 10.83537,-1.681 13.74297,-3.05463 12.62618,-5.96493 -0.7784,-2.02849 -4.11879,-1.58971 -15.90496,2.08925 -10.97706,3.42638 -15.72122,4.09509 -15.72122,2.21597 0,-0.98939 2.57652,-2.22659 7.75,-3.7214 4.2625,-1.2316 10.7875,-3.11621 14.5,-4.18802 3.81453,-1.10127 6.75,-2.50686 6.75,-3.23209 0,-2.09368 -4.43895,-5.63203 -7.06445,-5.63118 -3.32531,0.001 -13.81711,5.0851 -18.00531,8.72485 -4.22528,3.67199 -7.88395,5.65827 -8.76589,4.75897 -1.19943,-1.22304 9.38386,-9.99946 16.68405,-13.83561 3.93338,-2.06693 7.1516,-4.13836 7.1516,-4.60319 0,-1.35791 -11.02299,-11.04581 -12.56804,-11.04581 -0.77378,0 -2.52329,1.76853 -3.88781,3.93006 -3.05999,4.84734 -11.02232,11.06994 -14.1649,11.06994 -2.86462,0 -4.8644,-2.89774 -8.04288,-11.65436 -3.23509,-8.91257 -3.78731,-16.19657 -1.95944,-25.84564 2.99352,-15.80238 7.38704,-36.30908 7.9872,-37.28015 0.93981,-1.52066 -1.24112,-6.88533 -6.57071,-16.16267 -6.6894,-11.64439 -9.81518,-15.63062 -10.90639,-13.90864 -0.47102,0.7433 -0.8633,2.77716 -0.87172,4.51967 -0.0608,12.5865 -6.44913,4.96207 -9.70281,-11.5803 -0.97388,-4.95139 -2.49824,-9.02713 -4.38712,-11.73 -2.87735,-4.11732 -2.88555,-4.17116 -1.3705,-9 8.95088,-28.52864 16.27903,-57.08509 19.37915,-75.51701 1.75686,-10.44549 6.01382,-44.61579 6.0535,-48.5909 0.007,-0.6875 0.91247,-1.25 2.01247,-1.25 2.49731,0 2.52938,1.46983 0.43192,19.79782 -3.65829,31.96685 -8.67714,56.34998 -17.98665,87.38462 -2.9949,9.98395 -5.44527,19.38801 -5.44527,20.8979 0,2.01589 2.24345,5.30632 8.44411,12.3848 13.81948,15.77589 23.82701,32.53081 31.07984,52.03486 3.90442,10.49962 8.62303,27.9378 10.54291,38.96255 1.06262,6.102 1.49946,6.85479 6.78444,11.69134 6.54443,5.98914 10.88823,8.83709 13.4867,8.84237 1.0109,0.002 5.42019,-1.57126 9.79843,-3.49626 8.1226,-3.5713 10.86357,-4.22059 10.86357,-2.57339 0,1.13518 -9.12286,6.35824 -14.25,8.15847 -4.4659,1.56806 -4.98096,4.42558 -1.5,8.32181 l 2.25,2.51842 9,-1.92324 c 10.7123,-2.28914 14.83541,-2.50831 14.25183,-0.75757 -0.22815,0.68447 -4.70682,2.19655 -9.95258,3.36018 -11.23413,2.49197 -11.79925,2.7753 -11.79925,5.91579 0,2.83255 2.57048,3.69193 16.27337,5.44062 4.82535,0.61579 9.45994,1.38308 10.29909,1.70509 1.84607,0.7084 1.36354,3.95766 -0.52513,3.53606 -5.7174,-1.27628 -21.56675,-3.16897 -22.89548,-2.73412 -1.04432,0.34177 -2.82244,4.12494 -4.83463,10.28624 l -3.18278,9.74564 3.47963,7.72963 c 3.98233,8.84631 6.79093,16.70961 8.97832,25.1368 2.02385,7.79715 2.01336,27.28413 -0.0187,34.62494 -1.47842,5.34095 -1.45622,5.58746 0.81046,9 1.28179,1.92974 10.1692,11.60863 19.7498,21.50863 29.17109,30.14359 29.0538,30.00846 28.6903,33.05242 -0.29657,2.4836 -1.95161,1.01581 -19.35851,-17.16832 -10.46881,-10.93625 -21.90264,-22.9216 -25.4085,-26.6341 -3.50587,-3.7125 -6.75298,-6.75 -7.2158,-6.75 -2.048,0 -0.34545,7.04947 6.53381,27.05353 4.05642,11.79556 8.32485,23.80897 9.48541,26.69647 l 2.11011,5.25 h -2.33179 c -2.03647,0 -2.7883,-1.2348 -5.93639,-9.75 z m -97.07081,-91.87958 c 3.02603,-1.43595 11.34449,-9.84482 11.36171,-11.48521 0.004,-0.33814 -3.19844,-1.39375 -7.11555,-2.34581 -5.85785,-1.42375 -7.85827,-1.52486 -11.26997,-0.56964 -3.93864,1.10275 -4.44679,0.98142 -10.06917,-2.4042 -5.82668,-3.50865 -12.53885,-4.81991 -12.53885,-2.44954 0,1.54707 6.1492,9.73057 10.16993,13.53439 7.60343,7.19323 13.00918,8.78202 19.4619,5.72001 z m 11.05533,-18.62042 c 2.83965,-3.13844 4.31284,-8.10193 4.31284,-14.53089 v -5.48245 l -3.75,0.53047 c -2.0625,0.29176 -5.03631,1.03343 -6.60847,1.64816 -2.84815,1.11365 -2.85708,1.14508 -2.47508,8.70973 0.3278,6.49151 0.72198,7.86622 2.71925,9.48351 2.95907,2.39611 3.32981,2.37319 5.80146,-0.35853 z m -13.83017,0.26101 c 1.84926,-0.009 2.20267,-0.38798 1.64063,-1.76101 -0.9051,-2.21108 -1.20968,-4.53975 -1.37,-10.47432 -0.10988,-4.06764 -0.50987,-4.92863 -2.87762,-6.1942 -1.5125,-0.80843 -4.46254,-3.06999 -6.55565,-5.02568 -2.09311,-1.95569 -4.73741,-3.5558 -5.87622,-3.5558 -3.19948,0 -19.73685,4.05948 -20.30906,4.98532 -0.27969,0.45256 0.99605,4.34865 2.83497,8.65799 l 3.34351,7.83517 5.40623,0.0108 c 4.47772,0.009 6.17908,0.56295 9.90622,3.22591 3.57209,2.55217 5.22171,3.1215 8,2.761 1.925,-0.24978 4.56064,-0.45909 5.85699,-0.46514 z m 33.1984,-2.04065 c 3.10641,-1.6625 4.99287,-6.53385 5.22646,-13.49614 l 0.21815,-6.50191 -8.10776,-0.30896 -8.10777,-0.30895 -0.89899,10.39937 c -0.49445,5.71966 -0.70845,10.58992 -0.47557,10.82281 0.85991,0.85991 10.28501,0.38947 12.14548,-0.60622 z m -7.15964,-40.80791 c 3.95853,-6.16882 4.01808,-8.16245 0.24382,-8.16245 -5.73989,0 -12.13957,1.29921 -12.13957,2.46448 0,1.97068 6.08898,10.53552 7.48999,10.53552 0.71584,0 2.69843,-2.1769 4.40576,-4.83755 z m 17.36127,-25.69113 c 4.44403,-3.0198 6.47228,-6.63965 7.82727,-13.96949 1.80616,-9.77039 -1.29655,-15.63172 -10.79445,-20.39181 -5.20068,-2.60644 -7.28984,-2.67274 -7.28984,-0.23134 0,1.1304 1.15556,2.35733 2.90122,3.08041 4.79307,1.98535 7.33822,5.47742 7.84634,10.76554 0.61572,6.40793 -1.04444,12.06593 -4.72026,16.08709 -2.97502,3.25452 -3.68003,5.20222 -2.36063,6.52161 1.17784,1.17785 2.78506,0.72375 6.59035,-1.86201 z m 4.1175,-39.22132 c -0.87462,-3.6246 -6.35427,-19.33535 -7.41164,-21.25 -0.73634,-1.33333 -0.88818,-1.33333 -1.36661,0 -0.74062,2.06402 -3.59444,16.19771 -3.59545,17.8066 -7.9e-4,1.25234 9.13637,6.01633 11.76823,6.13579 0.88373,0.0401 1.06757,-0.77737 0.60547,-2.69239 z M 9.6075382,510.56587 c 0,-2.53553 1.2937498,-3.94878 9.2499998,-10.10435 21.41403,-16.56757 39.00788,-28.02663 62.749998,-40.86971 17.900841,-9.68331 18.553124,-10.18618 19.802634,-15.26684 1.457,-5.92435 7.67027,-56.71531 10.18645,-83.27003 2.62831,-27.73811 6.10872,-52.0705 10.65357,-74.48178 2.53194,-12.48537 3.4326,-19.24198 3.135,-23.51822 -0.24299,-3.49155 -2.75029,-13.31632 -5.99725,-23.5 -18.41446,-57.75478 -28.374473,-98.86116 -30.428433,-125.58244 -0.62604,-8.1445 -0.57736,-8.41756 1.5005,-8.41756 1.55519,0 2.15237,0.6206 2.1651,2.25 0.17182,21.99756 11.113673,68.23141 31.127523,131.52664 6.97046,22.04457 7.86329,25.6888 6.98251,28.5 -1.29554,4.13494 -6.49171,30.7038 -9.04008,46.22336 -2.5801,15.7128 -4.60251,32.2425 -7.09632,58 -2.05909,21.26747 -5.93505,53.60799 -8.38109,69.93075 -1.05242,7.02294 -1.8123,9.31455 -3.55711,10.72741 -1.22033,0.98817 -8.368983,5.03657 -15.885893,8.99645 -24.936589,13.1365 -47.925639,28.22284 -69.417109,45.55429 L 9.6075382,513.5137 Z M 232.81006,501.06146 c -2.91362,-0.81941 -8.64866,-3.03817 -12.74455,-4.93059 -5.64738,-2.60925 -7.3017,-3.81959 -6.84553,-5.00834 0.77144,-2.01034 0.43793,-2.07575 7.4414,1.45959 8.96094,4.52347 17.09985,6.3125 25.96385,5.70717 9.23708,-0.6308 13.763,-2.44972 20.5738,-8.26836 4.94264,-4.22263 7.18281,-4.64737 5.82312,-1.10407 -0.8341,2.17363 -8.08387,7.92789 -13.39682,10.63329 -5.79399,2.95033 -19.04326,3.69706 -26.81527,1.51131 z m -7.70252,-36.94112 c -6.67212,-1.90582 -18.5,-7.3507 -18.5,-8.51634 0,-2.35901 2.6791,-1.94138 9.79759,1.5273 7.12827,3.47344 8.50831,3.7866 18.51395,4.20115 13.9314,0.57721 18.25344,-0.61328 25.16749,-6.93234 2.91576,-2.66484 5.80079,-4.84517 6.41118,-4.84517 4.13627,0 -5.22168,10.0308 -12.16316,13.03771 -6.65987,2.88492 -21.71968,3.67209 -29.22705,1.52769 z m -6.26633,-94.3154 c -5.48755,-2.96842 -15.73819,-11.48451 -19.10914,-15.87561 -4.56765,-5.94996 -6.65777,-12.74176 -10.62842,-34.53683 -3.92682,-21.55446 -4.10248,-23.66765 -2.0333,-24.46166 2.00674,-0.77006 10.67794,2.1655 18.72909,6.34057 21.18282,10.98474 32.31215,38.4373 24.30844,59.96129 -2.22207,5.97572 -5.32829,10.32224 -7.37673,10.32224 -0.36015,0 -2.11062,-0.7875 -3.88994,-1.75 z m 7.89844,-11.59466 c 1.62552,-5.83183 1.40915,-21.28621 -0.36618,-26.15534 -1.45052,-3.97831 -1.48987,-4.00165 -7.25793,-4.30425 -3.18972,-0.16734 -6.18211,0.0784 -6.64976,0.54601 -0.46764,0.46764 0.0711,3.47182 1.1973,6.67594 1.16244,3.30734 1.91721,7.60226 1.74601,9.93543 -0.25383,3.45942 -0.73703,4.26202 -3.05356,5.07206 -2.2481,0.7861 -3.25519,0.55963 -5.5,-1.23684 -7.95939,-6.36972 -9.9182,-6.62687 -6.3367,-0.83188 2.82249,4.56687 14.58996,15.51894 18.49891,17.21706 2.80473,1.21842 3.25005,1.15289 4.82675,-0.7103 0.95532,-1.1289 2.25814,-3.92246 2.89516,-6.20789 z m -14.53953,-34.73479 c 4.10557,-0.6623 7.66861,-1.53415 7.91786,-1.93744 0.83776,-1.35553 -5.35484,-8.77997 -9.97401,-11.95804 -6.82481,-4.6956 -17.50013,-9.46137 -18.64003,-8.32147 -0.85255,0.85255 3.36831,26.29766 4.72694,28.49597 0.25495,0.41252 2.27277,-0.56056 4.48405,-2.1624 2.88608,-2.09067 6.12673,-3.25221 11.48519,-4.11662 z m -41.54634,-41.17055 c -0.63217,-1.7875 -1.39926,-6.85 -1.70463,-11.25 -0.46729,-6.73278 -0.20238,-8.93154 1.67238,-13.88083 2.32261,-6.13162 7.10095,-12.27236 11.29704,-14.51804 2.06172,-1.1034 3.33705,-1.05464 8.01939,0.30655 3.06228,0.89023 5.83087,2.04428 6.15242,2.56455 0.32154,0.52027 -2.4297,4.22686 -6.11387,8.23686 -7.26654,7.90919 -10.80377,14.46421 -12.68086,23.49954 -0.66174,3.18525 -1.56383,6.35387 -2.00465,7.04137 -1.41998,2.21458 -3.45745,1.33583 -4.63722,-2 z m -7.31403,-39.3705 c -0.27551,-1.44127 0.12451,-14.37877 0.88895,-28.75 0.76444,-14.37122 1.68051,-44.692 2.03572,-67.3795 0.63228,-40.38437 0.68785,-41.25 2.64817,-41.25 1.98167,0 1.9962,0.45161 1.40757,43.75 -0.32713,24.0625 -1.13573,53.77306 -1.7969,66.02346 -0.66117,12.25041 -0.97658,22.49902 -0.7009,22.77469 0.27567,0.27567 3.35983,-0.85069 6.85369,-2.50303 3.49386,-1.65233 10.75775,-3.98782 16.14198,-5.18998 l 9.78951,-2.18574 v -4.73249 c 0,-2.60287 -0.88078,-14.56599 -1.95729,-26.5847 -2.74428,-30.6386 -4.04497,-53.74134 -4.02906,-71.56356 0.0154,-17.27566 0.40949,-19.78865 3.10298,-19.78865 1.79062,0 1.88337,1.14777 1.88337,23.30655 0,29.72287 3.86655,88.34494 6.52584,98.94038 0.81906,3.2634 -1.04834,4.57049 -7.59484,5.316 -8.68827,0.98941 -15.84272,3.31959 -24.6715,8.03545 -4.53227,2.42089 -8.64231,4.40162 -9.13342,4.40162 -0.49111,0 -1.11835,-1.17922 -1.39387,-2.6205 z m -19.12776,-37.6295 c -2.05278,-3.20379 -3.13915,-8.04314 -6.00503,-26.75 -3.10885,-20.29278 -5.28823,-41.12239 -6.19927,-59.25 -0.66873,-13.30603 -0.62658,-13.75 1.30545,-13.75 1.87015,0 2.03947,0.9018 2.67565,14.25 1.11111,23.31286 6.49886,67.09944 9.7461,79.20715 0.76182,2.84051 1.28818,3.54596 1.86532,2.5 0.92312,-1.67299 6.45335,-35.05357 8.028,-48.45715 0.58152,-4.95 1.33309,-17.6625 1.67016,-28.25 0.56779,-17.83511 0.74868,-19.25 2.461,-19.25 1.6972,0 1.84784,1.00066 1.84409,12.25 -0.004,11.05273 -1.97728,37.87558 -3.49392,47.4852 -0.3268,2.07064 -1.0563,6.6898 -1.62111,10.2648 -3.66749,23.21331 -6.12178,32 -8.9382,32 -1.04312,0 -2.54533,-1.0125 -3.33824,-2.25 z m 81.46302,0.37607 c -1.48081,-2.76692 -1.25515,-13.477 1.25604,-59.61321 1.97476,-36.28099 2.33869,-40.0183 3.92649,-40.32333 2.25587,-0.43336 2.25349,0.006 -0.24298,44.81047 -1.08792,19.525 -1.96654,39.1 -1.95249,43.5 0.0233,7.31035 0.14275,7.78448 1.38517,5.5 2.29324,-4.21669 8.41744,-22.54731 14.14668,-42.343 4.65618,-16.08806 8.34153,-32.2982 10.8916,-47.907 0.47435,-2.90352 1.07181,-3.75 2.64679,-3.75 1.68642,0 1.93964,0.47009 1.48129,2.75 -0.30406,1.5125 -1.71201,8.94178 -3.12877,16.5095 -3.19658,17.07473 -7.75886,33.8649 -15.62787,57.51394 -6.12454,18.40632 -9.03646,24.44632 -12.06712,25.02997 -0.90604,0.17449 -2.12772,-0.58031 -2.71483,-1.67734 z"
       id="path1" /></g></svg>
